<mxfile host="app.diagrams.net" modified="2024-04-12T05:30:18.265Z" agent="Mozilla/5.0 (Windows NT 10.0; Win64; x64) AppleWebKit/537.36 (KHTML, like Gecko) Chrome/123.0.0.0 Safari/537.36" version="24.2.3" etag="8fAwpJFsoWzVg-j5_j9w" type="github">
  <diagram name="Page-1" id="xJO46h6ht3G7q9qXcB7O">
    <mxGraphModel>
      <root>
        <mxCell id="0" />
        <mxCell id="1" parent="0" />
      </root>
    </mxGraphModel>
  </diagram>
</mxfile>
